<svg id="svg" version="1.1" xmlns="http://www.w3.org/2000/svg" xmlns:xlink="http://www.w3.org/1999/xlink" width="400" height="571.4285714285714" viewBox="0, 0, 400,571.4285714285714"><g id="svgg"><path id="path1" d="M381.630 448.568 C 381.097 449.135,380.437 449.600,380.164 449.600 C 379.890 449.600,379.607 449.735,379.533 449.900 C 379.228 450.587,376.571 452.064,369.980 455.211 C 369.639 455.374,368.334 455.736,367.080 456.017 C 365.826 456.298,364.800 456.666,364.800 456.836 C 364.800 457.006,363.360 457.271,361.600 457.424 C 359.840 457.578,358.400 457.860,358.400 458.052 C 358.400 458.249,289.676 458.400,200.000 458.400 C 110.324 458.400,41.600 458.249,41.600 458.052 C 41.600 457.860,40.160 457.578,38.400 457.424 C 36.640 457.271,35.200 457.006,35.200 456.836 C 35.200 456.666,34.174 456.298,32.920 456.017 C 31.666 455.736,30.361 455.374,30.020 455.211 C 23.429 452.064,20.772 450.587,20.467 449.900 C 20.393 449.735,20.106 449.600,19.829 449.600 C 19.551 449.600,18.998 449.240,18.600 448.800 C 18.202 448.360,17.724 448.000,17.538 448.000 C 17.085 448.000,17.099 529.090,17.552 529.371 C 17.746 529.490,18.032 530.940,18.186 532.592 C 18.341 534.243,18.607 535.681,18.777 535.786 C 18.947 535.891,19.316 537.062,19.598 538.388 C 19.879 539.715,20.257 540.800,20.437 540.800 C 20.617 540.800,20.882 541.430,21.026 542.200 C 21.171 542.970,21.435 543.600,21.613 543.600 C 21.791 543.600,22.052 544.125,22.193 544.767 C 22.334 545.408,22.691 546.026,22.987 546.140 C 23.283 546.253,23.643 546.883,23.787 547.540 C 23.931 548.196,24.308 548.833,24.624 548.954 C 24.941 549.076,25.200 549.450,25.200 549.786 C 25.200 550.568,33.012 558.447,34.600 559.267 C 35.260 559.608,37.181 560.616,38.868 561.507 C 43.889 564.160,33.549 564.000,200.077 563.997 C 348.289 563.994,356.169 563.936,358.326 562.828 C 358.697 562.638,360.620 561.698,362.600 560.741 C 366.335 558.935,374.800 551.341,374.800 549.796 C 374.800 549.455,375.039 549.083,375.332 548.971 C 375.624 548.859,376.108 548.144,376.407 547.383 C 376.705 546.623,377.081 546.000,377.243 546.000 C 377.404 546.000,377.655 545.460,377.800 544.800 C 377.945 544.140,378.221 543.600,378.414 543.600 C 378.606 543.600,378.882 542.970,379.026 542.200 C 379.171 541.430,379.420 540.800,379.581 540.800 C 379.741 540.800,380.101 539.765,380.381 538.500 C 380.660 537.235,381.031 536.020,381.205 535.800 C 381.379 535.580,381.651 534.140,381.809 532.600 C 381.968 531.060,382.256 529.601,382.450 529.357 C 382.651 529.105,382.760 511.340,382.702 488.224 L 382.600 447.535 381.630 448.568 " stroke="none" fill="#c4c4c4" fill-rule="evenodd"></path><path id="path2" d="M40.605 1.495 C 39.728 1.585,38.828 1.803,38.605 1.979 C 38.382 2.155,37.349 2.422,36.309 2.573 C 35.269 2.723,34.328 2.992,34.218 3.171 C 34.108 3.349,33.294 3.611,32.409 3.752 C 31.524 3.894,30.800 4.187,30.800 4.405 C 30.800 4.622,30.502 4.800,30.139 4.800 C 29.293 4.800,25.200 6.726,25.200 7.124 C 25.200 7.289,24.705 7.648,24.100 7.920 C 23.495 8.193,22.460 8.708,21.800 9.064 C 20.401 9.820,10.800 19.385,10.800 20.022 C 10.800 20.259,10.350 21.043,9.800 21.764 C 9.250 22.486,8.800 23.269,8.800 23.504 C 8.800 23.740,8.665 23.993,8.500 24.067 C 7.998 24.290,5.679 29.283,5.187 31.200 C 4.933 32.190,4.570 33.299,4.381 33.665 C 4.192 34.031,3.915 35.291,3.765 36.465 C 3.616 37.639,3.293 38.853,3.047 39.161 C 2.399 39.975,2.408 417.240,3.055 418.039 C 3.306 418.347,3.643 419.583,3.804 420.784 C 3.966 421.985,4.239 423.245,4.410 423.584 C 4.582 423.923,4.958 425.010,5.246 426.000 C 5.704 427.573,7.456 431.267,9.229 434.400 C 9.540 434.950,10.471 436.242,11.297 437.272 C 12.124 438.301,12.800 439.301,12.800 439.493 C 12.800 439.907,18.959 446.000,19.378 446.000 C 19.536 446.000,20.434 446.630,21.374 447.400 C 22.314 448.170,23.190 448.800,23.321 448.800 C 23.452 448.800,24.334 449.317,25.280 449.950 C 26.226 450.582,27.450 451.224,28.000 451.377 C 28.870 451.619,30.126 452.138,32.400 453.197 C 32.730 453.351,33.990 453.697,35.200 453.967 C 36.410 454.237,37.832 454.670,38.361 454.929 C 39.093 455.288,77.488 455.400,200.000 455.400 C 322.512 455.400,360.907 455.288,361.639 454.929 C 362.168 454.670,363.590 454.237,364.800 453.967 C 366.010 453.697,367.270 453.351,367.600 453.197 C 369.861 452.144,371.130 451.618,372.000 451.373 C 372.550 451.217,373.752 450.575,374.672 449.945 C 375.592 449.315,376.473 448.800,376.631 448.800 C 376.789 448.800,377.686 448.170,378.626 447.400 C 379.566 446.630,380.466 446.000,380.626 446.000 C 381.055 446.000,388.000 439.104,388.000 438.678 C 388.000 438.478,388.495 437.659,389.100 436.858 C 390.352 435.198,390.758 434.511,392.811 430.574 C 393.622 429.019,394.509 426.813,394.783 425.672 C 395.056 424.531,395.432 423.504,395.617 423.389 C 395.802 423.275,396.067 422.331,396.204 421.291 C 396.342 420.251,396.668 418.968,396.927 418.439 C 397.605 417.063,397.615 39.183,396.937 38.361 C 396.683 38.053,396.347 36.943,396.191 35.895 C 396.035 34.847,395.764 33.901,395.589 33.793 C 395.413 33.685,395.147 32.832,394.998 31.898 C 394.732 30.237,392.094 24.331,391.500 24.067 C 391.335 23.993,391.200 23.740,391.200 23.504 C 391.200 23.269,390.750 22.486,390.200 21.764 C 389.650 21.043,389.200 20.259,389.200 20.022 C 389.200 19.385,379.599 9.820,378.200 9.064 C 377.540 8.708,376.505 8.193,375.900 7.920 C 375.295 7.648,374.800 7.302,374.800 7.153 C 374.800 6.748,371.957 5.342,370.484 5.018 C 369.778 4.863,369.200 4.573,369.200 4.373 C 369.200 4.173,368.476 3.894,367.591 3.752 C 366.706 3.611,365.892 3.349,365.782 3.171 C 365.672 2.992,364.731 2.723,363.691 2.573 C 362.651 2.422,361.547 2.097,361.239 1.850 C 360.700 1.418,44.733 1.068,40.605 1.495 " stroke="none" fill="#ec1c24" fill-rule="evenodd"></path><path id="path3" d="M31.192 1.410 C 30.552 2.181,30.775 2.390,31.800 1.978 C 32.240 1.801,32.364 1.644,32.076 1.628 C 31.788 1.613,31.664 1.420,31.800 1.200 C 32.182 0.581,31.758 0.728,31.192 1.410 M368.000 1.200 C 368.533 1.545,368.533 1.592,368.000 1.622 C 367.604 1.645,367.671 1.765,368.200 1.978 C 368.640 2.155,369.071 2.237,369.157 2.159 C 369.419 1.925,368.333 0.800,367.851 0.806 C 367.603 0.809,367.670 0.987,368.000 1.200 M27.200 3.309 C 27.200 3.495,27.040 3.549,26.845 3.428 C 26.650 3.307,26.268 3.477,25.996 3.804 C 25.724 4.132,25.209 4.414,24.851 4.432 C 24.416 4.453,24.370 4.532,24.713 4.669 C 24.996 4.783,25.508 4.642,25.852 4.356 C 26.197 4.071,26.862 3.779,27.330 3.707 C 28.511 3.527,29.151 2.823,28.060 2.905 C 27.587 2.941,27.200 3.123,27.200 3.309 M371.449 3.209 C 371.651 3.411,372.201 3.636,372.670 3.707 C 373.138 3.779,373.765 4.039,374.062 4.286 C 374.360 4.532,374.857 4.794,375.168 4.867 C 375.479 4.940,376.063 5.315,376.467 5.700 C 376.870 6.085,377.425 6.394,377.700 6.386 C 377.975 6.378,377.789 6.144,377.287 5.865 C 376.786 5.586,376.499 5.234,376.651 5.082 C 376.803 4.930,376.363 4.693,375.673 4.555 C 374.983 4.417,374.214 4.057,373.964 3.756 C 373.714 3.455,373.350 3.307,373.155 3.428 C 372.960 3.549,372.800 3.495,372.800 3.309 C 372.800 3.123,372.413 2.941,371.940 2.905 C 371.417 2.866,371.225 2.985,371.449 3.209 M23.382 5.171 C 23.508 5.375,23.235 5.662,22.776 5.808 C 22.316 5.954,22.028 6.161,22.136 6.269 C 22.422 6.555,24.000 5.639,24.000 5.186 C 24.000 4.974,23.809 4.800,23.576 4.800 C 23.343 4.800,23.256 4.967,23.382 5.171 M20.732 6.760 C 20.468 7.183,19.979 7.432,19.629 7.322 C 19.095 7.154,19.088 7.187,19.582 7.536 C 20.283 8.033,21.303 7.543,21.435 6.645 C 21.560 5.790,21.313 5.830,20.732 6.760 M378.556 6.545 C 378.693 7.524,379.683 8.055,380.418 7.544 C 380.924 7.192,380.923 7.160,380.408 7.300 C 380.082 7.389,379.509 7.088,379.134 6.631 C 378.511 5.872,378.462 5.864,378.556 6.545 M16.562 9.642 C 16.143 10.105,15.845 10.600,15.900 10.742 C 15.955 10.884,15.820 11.000,15.600 11.000 C 15.380 11.000,15.185 11.150,15.167 11.333 C 15.097 12.028,15.497 11.977,16.198 11.202 C 16.597 10.761,16.778 10.400,16.600 10.400 C 16.422 10.400,16.602 10.040,17.000 9.600 C 17.398 9.160,17.634 8.800,17.524 8.800 C 17.414 8.800,16.981 9.179,16.562 9.642 M382.962 9.500 C 383.381 9.995,383.578 10.400,383.400 10.400 C 383.222 10.400,383.398 10.756,383.791 11.191 C 384.185 11.625,384.675 11.877,384.880 11.751 C 385.317 11.481,384.940 11.008,384.267 10.982 C 384.010 10.972,383.838 10.768,383.884 10.529 C 383.930 10.291,383.570 9.759,383.084 9.348 L 382.200 8.600 382.962 9.500 M15.612 14.188 C 13.759 16.051,12.323 17.628,12.421 17.692 C 12.519 17.756,14.119 16.231,15.975 14.304 C 17.832 12.377,19.268 10.800,19.167 10.800 C 19.065 10.800,17.466 12.324,15.612 14.188 M384.011 14.204 C 385.875 16.186,387.482 17.755,387.582 17.689 C 387.682 17.623,386.157 16.001,384.193 14.085 L 380.622 10.600 384.011 14.204 M13.788 12.420 C 13.407 13.035,13.928 13.432,14.442 12.918 C 14.729 12.631,14.736 12.407,14.462 12.239 C 14.239 12.100,13.935 12.182,13.788 12.420 M385.439 12.338 C 385.300 12.561,385.382 12.865,385.620 13.012 C 386.235 13.393,386.632 12.872,386.118 12.358 C 385.831 12.071,385.607 12.064,385.439 12.338 M12.369 13.700 C 11.962 15.031,12.079 15.252,12.830 14.573 C 13.254 14.189,13.600 13.814,13.600 13.738 C 13.600 13.582,12.417 13.545,12.369 13.700 M386.962 14.354 C 387.886 15.380,387.957 15.392,387.827 14.500 C 387.770 14.115,387.381 13.734,386.962 13.654 C 386.213 13.509,386.213 13.521,386.962 14.354 M10.511 16.500 C 9.729 17.511,9.463 18.132,9.936 17.840 C 10.410 17.547,11.357 16.000,11.063 16.000 C 10.972 16.000,10.724 16.225,10.511 16.500 M389.131 16.652 C 390.015 18.264,390.907 19.141,390.222 17.725 C 389.883 17.024,389.406 16.328,389.163 16.177 C 388.846 15.981,388.837 16.116,389.131 16.652 M7.864 19.529 C 7.129 20.341,6.987 21.200,7.587 21.200 C 7.801 21.200,7.860 20.900,7.719 20.534 C 7.547 20.085,7.617 19.963,7.935 20.160 C 8.204 20.326,8.511 20.175,8.652 19.808 C 9.022 18.844,8.615 18.700,7.864 19.529 M391.277 19.400 C 391.371 19.840,391.684 20.148,391.973 20.084 C 392.300 20.011,392.409 20.199,392.262 20.584 C 392.132 20.923,392.199 21.200,392.413 21.200 C 393.092 21.200,392.829 20.150,391.954 19.362 C 391.119 18.611,391.110 18.612,391.277 19.400 M5.600 24.167 C 5.600 24.478,5.375 24.824,5.100 24.935 C 4.723 25.087,4.720 25.145,5.086 25.168 C 5.353 25.186,5.765 24.840,6.000 24.400 C 6.290 23.858,6.295 23.600,6.014 23.600 C 5.786 23.600,5.600 23.855,5.600 24.167 M394.000 24.400 C 394.235 24.840,394.647 25.186,394.914 25.168 C 395.280 25.145,395.277 25.087,394.900 24.935 C 394.625 24.824,394.400 24.478,394.400 24.167 C 394.400 23.855,394.214 23.600,393.986 23.600 C 393.705 23.600,393.710 23.858,394.000 24.400 M4.623 31.700 C 4.208 33.067,4.107 33.981,4.391 33.805 C 4.565 33.698,4.787 33.068,4.885 32.405 C 5.063 31.193,4.906 30.770,4.623 31.700 M395.106 32.618 C 395.210 33.165,395.428 33.694,395.590 33.794 C 395.752 33.894,395.799 33.529,395.694 32.982 C 395.590 32.435,395.372 31.906,395.210 31.806 C 395.048 31.706,395.001 32.071,395.106 32.618 M3.180 37.490 C 3.071 38.419,3.133 39.027,3.320 38.840 C 3.506 38.654,3.596 37.894,3.519 37.151 C 3.383 35.833,3.375 35.842,3.180 37.490 M0.406 39.876 C 0.403 40.358,0.580 40.864,0.800 41.000 C 1.309 41.315,1.309 40.388,0.800 39.600 C 0.485 39.112,0.411 39.164,0.406 39.876 M399.049 39.930 C 398.872 40.442,398.833 40.967,398.963 41.097 C 399.378 41.511,399.670 40.900,399.518 39.934 L 399.371 39.000 399.049 39.930 M0.700 415.831 C 0.535 415.997,0.400 416.499,0.400 416.947 C 0.400 417.535,0.521 417.639,0.838 417.322 C 1.078 417.082,1.213 416.580,1.138 416.207 C 1.062 415.833,0.865 415.664,0.700 415.831 M398.800 416.353 C 398.800 416.793,398.980 417.264,399.200 417.400 C 399.420 417.536,399.600 417.287,399.600 416.847 C 399.600 416.407,399.420 415.936,399.200 415.800 C 398.980 415.664,398.800 415.913,398.800 416.353 M3.200 419.576 C 3.200 420.223,3.342 420.841,3.516 420.948 C 3.690 421.056,3.761 420.527,3.673 419.772 C 3.476 418.091,3.200 417.977,3.200 419.576 M396.556 418.971 C 396.435 419.285,396.404 419.960,396.486 420.471 C 396.595 421.154,396.688 421.004,396.837 419.900 C 397.047 418.347,396.936 417.981,396.556 418.971 M2.139 425.015 C 1.926 425.570,3.125 427.408,3.474 427.060 C 3.803 426.730,3.083 425.625,2.695 425.865 C 2.428 426.030,2.356 425.810,2.500 425.263 C 2.758 424.275,2.493 424.093,2.139 425.015 M397.500 425.262 C 397.644 425.810,397.572 426.030,397.305 425.865 C 397.073 425.722,396.775 425.888,396.642 426.235 C 396.241 427.280,396.361 427.359,397.200 426.600 C 398.050 425.831,398.235 424.993,397.637 424.623 C 397.438 424.500,397.376 424.787,397.500 425.262 M3.188 428.378 C 3.417 428.805,3.786 429.268,4.009 429.405 C 4.231 429.543,4.292 429.851,4.145 430.089 C 3.979 430.357,4.064 430.408,4.364 430.222 C 4.735 429.993,4.702 429.755,4.226 429.229 C 3.882 428.848,3.600 428.326,3.600 428.069 C 3.600 427.811,3.414 427.600,3.186 427.600 C 2.901 427.600,2.902 427.843,3.188 428.378 M396.400 428.069 C 396.400 428.326,396.118 428.848,395.774 429.229 C 395.298 429.755,395.265 429.993,395.636 430.222 C 395.936 430.408,396.021 430.357,395.855 430.089 C 395.708 429.851,395.769 429.543,395.991 429.405 C 396.656 428.994,397.292 427.600,396.814 427.600 C 396.586 427.600,396.400 427.811,396.400 428.069 M5.227 433.032 C 5.794 433.716,6.529 433.786,6.312 433.135 C 6.226 432.879,5.841 432.624,5.456 432.567 C 4.893 432.484,4.848 432.576,5.227 433.032 M393.742 432.893 C 393.328 433.563,394.015 433.757,394.629 433.143 C 395.175 432.597,395.172 432.533,394.601 432.533 C 394.251 432.533,393.865 432.695,393.742 432.893 M7.049 435.883 C 7.318 437.363,7.600 437.572,7.600 436.290 C 7.600 435.717,7.431 435.143,7.225 435.015 C 7.010 434.883,6.935 435.253,7.049 435.883 M392.375 435.646 C 392.023 436.305,392.034 436.455,392.426 436.325 C 392.703 436.232,392.975 435.851,393.030 435.478 C 393.164 434.562,392.922 434.625,392.375 435.646 M11.634 438.247 C 12.165 438.933,12.680 439.423,12.779 439.335 C 12.877 439.247,12.443 438.686,11.813 438.088 L 10.669 437.000 11.634 438.247 M9.020 439.233 C 9.507 440.020,10.913 440.532,10.485 439.765 C 10.268 439.377,9.799 439.017,9.443 438.965 C 9.087 438.913,8.897 439.033,9.020 439.233 M389.548 439.697 C 389.184 440.377,389.228 440.413,389.947 440.028 C 391.018 439.455,391.311 438.933,390.561 438.933 C 390.229 438.933,389.773 439.277,389.548 439.697 M387.923 441.500 C 387.592 441.885,387.210 442.515,387.073 442.900 C 386.937 443.285,386.646 443.600,386.427 443.600 C 386.207 443.600,385.818 444.005,385.562 444.500 C 385.169 445.261,385.290 445.218,386.348 444.225 C 387.037 443.579,387.600 442.814,387.600 442.525 C 387.600 442.236,387.801 442.045,388.047 442.100 C 388.293 442.155,388.547 441.885,388.611 441.500 C 388.676 441.115,388.683 440.800,388.627 440.800 C 388.570 440.800,388.253 441.115,387.923 441.500 M12.425 442.425 C 12.411 442.769,12.963 443.579,13.652 444.225 C 14.710 445.218,14.831 445.261,14.438 444.500 C 14.182 444.005,13.792 443.600,13.573 443.600 C 13.354 443.600,13.011 443.195,12.812 442.700 C 12.587 442.138,12.441 442.035,12.425 442.425 M20.488 447.013 C 21.086 447.643,21.647 448.077,21.735 447.979 C 21.823 447.880,21.333 447.365,20.647 446.834 L 19.400 445.869 20.488 447.013 M379.078 447.013 C 378.460 447.556,378.114 448.000,378.308 448.000 C 378.502 448.000,379.083 447.550,379.600 447.000 C 380.795 445.728,380.531 445.734,379.078 447.013 M27.806 451.610 C 27.906 451.772,28.435 451.990,28.982 452.094 C 29.529 452.199,29.894 452.152,29.794 451.990 C 29.694 451.828,29.165 451.610,28.618 451.506 C 28.071 451.401,27.706 451.448,27.806 451.610 M371.400 451.485 C 370.175 451.780,369.798 452.328,370.976 452.103 C 371.546 451.994,372.110 451.746,372.230 451.552 C 372.349 451.359,372.392 451.221,372.324 451.246 C 372.256 451.272,371.840 451.379,371.400 451.485 M35.941 454.501 C 36.143 454.703,36.733 454.801,37.254 454.719 C 38.055 454.593,37.998 454.537,36.887 454.352 C 36.093 454.221,35.719 454.279,35.941 454.501 M363.000 454.400 L 361.800 454.705 362.876 454.753 C 363.468 454.779,364.064 454.620,364.200 454.400 C 364.336 454.180,364.392 454.021,364.324 454.047 C 364.256 454.073,363.660 454.232,363.000 454.400 M199.800 455.600 L 41.800 455.802 199.676 455.901 C 304.603 455.967,357.636 455.866,357.800 455.600 C 357.936 455.380,357.992 455.245,357.924 455.299 C 357.856 455.354,286.700 455.489,199.800 455.600 M35.560 456.920 C 35.746 457.106,36.506 457.196,37.249 457.119 C 38.567 456.983,38.558 456.975,36.910 456.780 C 35.981 456.671,35.373 456.733,35.560 456.920 M363.000 456.800 L 361.400 457.086 362.876 457.143 C 363.688 457.174,364.464 457.020,364.600 456.800 C 364.736 456.580,364.792 456.426,364.724 456.457 C 364.656 456.488,363.880 456.642,363.000 456.800 M384.618 526.726 C 384.453 527.895,384.413 528.946,384.529 529.062 C 384.814 529.347,385.331 525.787,385.100 525.125 C 385.000 524.836,384.782 525.557,384.618 526.726 M14.880 526.200 C 14.880 526.860,15.024 527.850,15.200 528.400 C 15.511 529.372,15.520 529.367,15.520 528.200 C 15.520 527.540,15.376 526.550,15.200 526.000 C 14.889 525.028,14.880 525.033,14.880 526.200 M15.467 531.467 C 15.320 531.613,15.215 532.198,15.234 532.767 C 15.268 533.781,15.275 533.779,15.621 532.620 C 15.985 531.403,15.931 531.002,15.467 531.467 M384.240 532.266 C 384.608 533.799,384.800 533.944,384.800 532.690 C 384.800 532.117,384.613 531.532,384.384 531.390 C 384.111 531.221,384.062 531.523,384.240 532.266 M17.968 533.900 C 18.159 535.281,18.187 535.309,18.319 534.251 C 18.398 533.619,18.305 532.945,18.112 532.752 C 17.910 532.550,17.849 533.040,17.968 533.900 M381.756 532.971 C 381.635 533.285,381.604 533.960,381.686 534.471 C 381.795 535.154,381.888 535.004,382.037 533.900 C 382.247 532.347,382.136 531.981,381.756 532.971 M16.244 535.000 C 16.573 536.471,16.802 536.790,16.794 535.767 C 16.791 535.345,16.605 534.730,16.382 534.400 C 16.085 533.962,16.048 534.124,16.244 535.000 M19.106 538.218 C 19.210 538.765,19.428 539.294,19.590 539.394 C 19.752 539.494,19.799 539.129,19.694 538.582 C 19.590 538.035,19.372 537.506,19.210 537.406 C 19.048 537.306,19.001 537.671,19.106 538.218 M380.587 537.800 C 380.484 538.130,380.312 538.679,380.205 539.021 C 380.097 539.362,380.166 539.545,380.357 539.427 C 380.548 539.309,380.791 538.759,380.897 538.206 C 381.106 537.113,380.890 536.830,380.587 537.800 M17.858 541.451 C 18.109 541.554,18.240 542.035,18.149 542.519 C 17.994 543.343,18.007 543.348,18.342 542.600 C 18.748 541.693,18.575 541.185,17.876 541.232 C 17.532 541.254,17.527 541.315,17.858 541.451 M381.474 541.500 C 381.378 541.665,381.461 542.160,381.658 542.600 C 381.993 543.348,382.006 543.343,381.851 542.519 C 381.760 542.035,381.891 541.554,382.142 541.451 C 382.473 541.315,382.468 541.254,382.124 541.232 C 381.862 541.214,381.569 541.335,381.474 541.500 M18.990 543.400 C 19.164 543.840,19.291 544.558,19.271 544.995 C 19.243 545.617,19.313 545.665,19.590 545.217 C 19.803 544.871,19.775 544.317,19.518 543.822 C 18.930 542.689,18.605 542.429,18.990 543.400 M380.502 543.735 C 380.267 544.251,380.215 544.900,380.386 545.177 C 380.585 545.500,380.771 545.198,380.901 544.341 C 381.154 542.679,381.053 542.526,380.502 543.735 M20.170 546.278 C 20.225 546.651,20.497 547.032,20.774 547.125 C 21.166 547.255,21.177 547.105,20.825 546.446 C 20.278 545.425,20.036 545.362,20.170 546.278 M379.175 546.446 C 378.823 547.105,378.834 547.255,379.226 547.125 C 379.503 547.032,379.775 546.651,379.830 546.278 C 379.964 545.362,379.722 545.425,379.175 546.446 M21.483 549.177 C 21.969 549.575,22.239 550.042,22.083 550.214 C 21.927 550.387,22.027 550.397,22.305 550.237 C 22.984 549.847,22.325 548.693,21.345 548.556 C 20.688 548.465,20.704 548.538,21.483 549.177 M377.577 549.242 C 377.315 549.733,377.353 550.041,377.699 550.240 C 377.975 550.398,378.073 550.387,377.917 550.214 C 377.761 550.042,378.014 549.593,378.478 549.217 C 379.197 548.635,379.221 548.533,378.640 548.533 C 378.264 548.533,377.786 548.852,377.577 549.242 M24.170 552.678 C 24.225 553.051,24.480 553.427,24.737 553.512 C 24.995 553.598,25.085 553.878,24.938 554.134 C 24.792 554.390,24.819 554.467,24.999 554.303 C 25.179 554.140,25.605 554.230,25.946 554.503 C 26.287 554.777,26.057 554.325,25.435 553.500 C 24.159 551.807,24.030 551.723,24.170 552.678 M374.565 553.500 C 373.943 554.325,373.713 554.777,374.054 554.503 C 374.395 554.230,374.821 554.140,375.001 554.303 C 375.181 554.467,375.208 554.390,375.062 554.134 C 374.915 553.878,375.005 553.598,375.263 553.512 C 375.657 553.381,376.159 552.000,375.812 552.000 C 375.748 552.000,375.186 552.675,374.565 553.500 M26.400 555.738 C 26.730 556.012,27.215 556.479,27.478 556.776 C 27.863 557.212,27.914 557.158,27.741 556.495 C 27.623 556.043,27.138 555.576,26.663 555.457 C 25.930 555.273,25.890 555.315,26.400 555.738 M365.800 559.068 C 364.920 559.857,364.560 560.316,365.000 560.088 C 365.741 559.704,367.951 557.579,367.570 557.617 C 367.476 557.626,366.680 558.279,365.800 559.068 M34.720 562.242 C 34.935 562.627,35.491 562.970,35.956 563.004 C 37.094 563.088,37.022 562.935,35.564 562.181 C 34.401 561.580,34.351 561.584,34.720 562.242 M364.300 562.229 C 362.979 562.946,362.932 563.086,364.044 563.004 C 364.509 562.970,365.058 562.640,365.264 562.271 C 365.713 561.470,365.700 561.469,364.300 562.229 M359.400 562.285 C 358.175 562.580,357.798 563.128,358.976 562.903 C 359.546 562.794,360.110 562.546,360.230 562.352 C 360.349 562.159,360.392 562.021,360.324 562.046 C 360.256 562.072,359.840 562.179,359.400 562.285 M43.552 563.712 C 43.745 563.905,44.419 563.998,45.051 563.919 C 46.109 563.787,46.081 563.759,44.700 563.568 C 43.840 563.449,43.350 563.510,43.552 563.712 M355.200 563.600 L 353.800 563.895 355.076 563.947 C 355.778 563.976,356.464 563.820,356.600 563.600 C 356.736 563.380,356.792 563.224,356.724 563.253 C 356.656 563.282,355.970 563.438,355.200 563.600 M47.200 566.400 C 46.812 566.651,100.818 566.788,200.000 566.788 C 299.182 566.788,353.188 566.651,352.800 566.400 C 352.415 566.151,297.582 566.012,200.000 566.012 C 102.418 566.012,47.585 566.151,47.200 566.400 " stroke="none" fill="#848484" fill-rule="evenodd"></path><path id="path4" d="M381.375 448.500 L 380.200 449.800 381.500 448.625 C 382.215 447.979,382.800 447.394,382.800 447.325 C 382.800 447.016,382.470 447.288,381.375 448.500 M120.700 458.300 C 164.315 458.356,235.685 458.356,279.300 458.300 C 322.915 458.244,287.230 458.198,200.000 458.198 C 112.770 458.198,77.085 458.244,120.700 458.300 M17.580 530.910 C 17.775 532.558,17.783 532.567,17.919 531.249 C 17.996 530.506,17.906 529.746,17.720 529.560 C 17.533 529.373,17.471 529.981,17.580 530.910 M382.158 529.766 C 382.038 530.078,382.005 530.843,382.084 531.466 C 382.202 532.391,382.264 532.287,382.425 530.900 C 382.627 529.151,382.538 528.775,382.158 529.766 M26.800 552.376 C 26.800 552.725,31.954 557.794,32.089 557.578 C 32.150 557.480,30.985 556.214,29.500 554.764 C 28.015 553.314,26.800 552.240,26.800 552.376 M370.364 554.900 C 368.914 556.385,367.840 557.600,367.976 557.600 C 368.325 557.600,373.394 552.446,373.178 552.311 C 373.080 552.250,371.814 553.415,370.364 554.900 M46.262 564.100 C 46.364 564.265,115.546 564.400,200.000 564.400 C 284.454 564.400,353.636 564.265,353.738 564.100 C 353.840 563.935,284.658 563.800,200.000 563.800 C 115.342 563.800,46.160 563.935,46.262 564.100 M45.968 566.528 C 46.174 566.734,46.632 566.702,47.061 566.452 C 47.710 566.073,47.666 566.030,46.707 566.097 C 46.071 566.141,45.762 566.322,45.968 566.528 M352.939 566.452 C 353.368 566.702,353.826 566.734,354.032 566.528 C 354.238 566.322,353.929 566.141,353.293 566.097 C 352.334 566.030,352.290 566.073,352.939 566.452 " stroke="none" fill="#8c8c8c" fill-rule="evenodd"></path><path id="path0" d="M0.000 285.600 L 0.000 571.200 200.000 571.200 L 400.000 571.200 400.000 285.600 L 400.000 0.000 382.433 -0.000 C 369.413 -0.000,364.826 0.121,364.711 0.466 C 364.593 0.821,364.237 0.821,363.218 0.466 C 361.285 -0.208,38.715 -0.208,36.782 0.466 C 35.763 0.821,35.407 0.821,35.289 0.466 C 35.174 0.121,30.587 0.000,17.567 0.000 L 0.000 0.000 0.000 285.600 M34.797 0.700 C 34.796 0.865,33.761 1.336,32.497 1.746 C 28.007 3.203,25.668 4.351,21.300 7.238 C 19.705 8.293,18.406 9.030,18.413 8.878 C 18.439 8.313,19.601 7.068,19.860 7.327 C 20.008 7.474,20.382 7.233,20.691 6.791 C 21.001 6.348,21.402 6.078,21.582 6.189 C 21.762 6.300,22.152 6.099,22.449 5.741 C 22.999 5.079,26.354 3.415,26.900 3.535 C 27.065 3.571,27.200 3.441,27.200 3.247 C 27.200 2.927,28.377 2.380,29.400 2.224 C 29.620 2.190,30.250 1.909,30.800 1.598 C 31.350 1.287,32.011 1.075,32.270 1.127 C 32.528 1.179,32.854 1.036,32.993 0.811 C 33.284 0.340,34.801 0.247,34.797 0.700 M367.004 0.807 C 367.142 1.030,367.418 1.113,367.616 0.990 C 367.815 0.867,368.465 1.086,369.061 1.477 C 369.657 1.867,370.337 2.209,370.572 2.236 C 371.545 2.348,372.800 2.917,372.800 3.247 C 372.800 3.441,372.935 3.571,373.100 3.535 C 373.646 3.415,377.001 5.079,377.551 5.741 C 377.848 6.099,378.238 6.300,378.418 6.189 C 378.598 6.078,378.999 6.348,379.309 6.791 C 379.618 7.233,379.988 7.479,380.130 7.336 C 380.272 7.194,380.762 7.552,381.217 8.131 C 381.673 8.711,382.190 9.143,382.366 9.092 C 382.771 8.976,389.200 15.421,389.200 15.943 C 389.200 16.155,389.705 16.754,390.322 17.273 C 390.939 17.792,391.573 18.483,391.730 18.809 C 391.887 19.134,392.458 20.120,392.998 21.000 C 393.539 21.880,394.096 22.915,394.237 23.300 C 394.378 23.685,394.663 24.000,394.870 24.000 C 395.078 24.000,395.144 24.168,395.017 24.372 C 394.891 24.577,394.970 24.858,395.193 24.996 C 395.662 25.286,395.748 26.403,395.300 26.394 C 395.135 26.390,394.550 25.446,394.000 24.294 C 393.450 23.143,392.859 22.021,392.686 21.800 C 392.513 21.580,391.567 20.230,390.583 18.800 C 385.325 11.159,376.570 4.689,367.503 1.746 C 366.239 1.336,365.204 0.865,365.203 0.700 C 365.199 0.249,366.715 0.339,367.004 0.807 M359.600 1.605 C 362.884 2.108,367.169 3.296,369.200 4.266 C 370.190 4.739,371.450 5.256,372.000 5.415 C 372.550 5.575,373.478 6.041,374.062 6.452 C 374.646 6.864,375.321 7.200,375.562 7.200 C 375.803 7.200,376.000 7.380,376.000 7.600 C 376.000 7.820,376.187 8.000,376.416 8.000 C 376.944 8.000,379.296 9.638,379.720 10.300 C 379.896 10.575,380.252 10.800,380.512 10.800 C 381.035 10.800,387.600 17.194,387.600 17.703 C 387.600 17.879,388.321 18.963,389.203 20.112 C 390.085 21.260,390.940 22.380,391.104 22.600 C 391.886 23.653,394.800 30.105,394.800 30.783 C 394.800 31.206,394.970 31.658,395.177 31.786 C 395.384 31.914,395.679 32.869,395.832 33.909 C 395.986 34.949,396.275 35.906,396.475 36.036 C 398.164 37.129,398.161 419.227,396.472 421.328 C 396.263 421.587,395.961 422.430,395.800 423.200 C 395.639 423.970,395.373 424.780,395.209 425.000 C 395.045 425.220,394.785 425.940,394.632 426.600 C 394.218 428.392,391.636 433.596,390.339 435.258 C 389.712 436.059,389.200 436.941,389.200 437.217 C 389.200 437.889,379.708 447.291,378.194 448.119 C 377.537 448.477,376.431 449.043,375.737 449.376 C 375.042 449.708,374.412 450.120,374.337 450.290 C 374.170 450.669,371.686 452.000,371.146 452.000 C 370.931 452.000,370.001 452.340,369.078 452.755 C 368.155 453.170,366.770 453.641,366.000 453.801 C 365.230 453.961,364.407 454.247,364.170 454.437 C 363.934 454.626,362.443 454.902,360.858 455.049 C 359.272 455.197,357.880 455.471,357.764 455.659 C 357.484 456.111,42.112 456.105,41.832 455.653 C 41.714 455.461,40.358 455.181,38.818 455.029 C 37.278 454.878,35.926 454.604,35.814 454.422 C 35.701 454.240,34.932 453.964,34.104 453.809 C 33.277 453.654,31.845 453.184,30.922 452.764 C 29.999 452.344,29.069 452.000,28.854 452.000 C 28.323 452.000,25.832 450.672,25.667 450.300 C 25.593 450.135,25.340 450.000,25.104 450.000 C 24.869 450.000,24.086 449.550,23.364 449.000 C 22.643 448.450,21.854 448.000,21.611 448.000 C 21.004 448.000,10.800 437.808,10.800 437.202 C 10.800 436.934,10.288 436.059,9.661 435.258 C 8.411 433.657,5.800 428.438,5.379 426.700 C 5.233 426.095,4.976 425.600,4.808 425.600 C 4.640 425.600,4.378 424.659,4.226 423.510 C 4.073 422.360,3.785 421.223,3.585 420.982 C 1.778 418.805,1.755 37.188,3.562 36.013 C 3.742 35.896,4.015 34.944,4.169 33.898 C 4.324 32.852,4.707 31.502,5.022 30.898 C 5.337 30.294,5.596 29.666,5.598 29.501 C 5.600 29.158,8.446 23.204,8.896 22.600 C 9.059 22.380,9.915 21.260,10.797 20.112 C 11.679 18.963,12.400 17.887,12.400 17.720 C 12.400 17.209,18.949 10.800,19.471 10.800 C 19.740 10.800,20.104 10.575,20.280 10.300 C 20.704 9.638,23.056 8.000,23.584 8.000 C 23.813 8.000,24.000 7.841,24.000 7.647 C 24.000 7.452,24.315 7.188,24.700 7.059 C 25.085 6.931,26.370 6.280,27.555 5.613 C 28.741 4.946,29.854 4.400,30.029 4.400 C 30.205 4.400,30.855 4.189,31.474 3.931 C 32.951 3.315,37.726 2.022,40.000 1.623 C 42.432 1.196,356.815 1.178,359.600 1.605 M14.616 12.732 C 12.718 14.626,10.318 17.441,9.283 18.988 C 8.247 20.534,7.310 21.890,7.200 22.000 C 7.090 22.110,6.378 23.460,5.618 25.000 C 4.778 26.701,4.180 27.534,4.093 27.121 C 4.014 26.747,4.179 26.027,4.460 25.521 C 4.740 25.014,4.932 24.465,4.885 24.300 C 4.838 24.135,4.959 24.000,5.153 24.000 C 5.348 24.000,5.622 23.685,5.763 23.300 C 5.904 22.915,6.461 21.880,7.002 21.000 C 7.542 20.120,8.113 19.134,8.270 18.809 C 8.427 18.483,9.061 17.792,9.678 17.273 C 10.295 16.754,10.800 16.159,10.800 15.951 C 10.800 15.348,17.354 8.848,17.729 9.080 C 17.915 9.195,16.514 10.838,14.616 12.732 M3.978 28.500 C 3.913 29.937,2.469 32.587,2.165 31.824 C 1.971 31.336,2.031 30.990,2.328 30.891 C 2.588 30.804,2.800 30.403,2.800 29.999 C 2.800 28.984,3.215 28.000,3.643 28.000 C 3.839 28.000,3.990 28.225,3.978 28.500 M396.957 28.633 C 397.091 28.981,397.200 29.596,397.200 29.999 C 397.200 30.403,397.404 30.801,397.653 30.884 C 397.938 30.979,397.995 31.385,397.808 31.976 C 397.536 32.832,396.000 29.721,396.000 28.315 C 396.000 27.749,396.708 27.984,396.957 28.633 M2.400 33.800 C 2.400 34.130,2.220 34.400,2.000 34.400 C 1.780 34.400,1.600 34.130,1.600 33.800 C 1.600 33.470,1.780 33.200,2.000 33.200 C 2.220 33.200,2.400 33.470,2.400 33.800 M398.400 33.800 C 398.400 34.130,398.220 34.400,398.000 34.400 C 397.780 34.400,397.600 34.130,397.600 33.800 C 397.600 33.470,397.780 33.200,398.000 33.200 C 398.220 33.200,398.400 33.470,398.400 33.800 M1.673 36.690 L 1.452 37.800 1.189 36.800 C 0.902 35.707,1.073 35.075,1.574 35.384 C 1.749 35.492,1.794 36.080,1.673 36.690 M398.873 36.690 L 398.652 37.800 398.389 36.800 C 398.102 35.707,398.273 35.075,398.774 35.384 C 398.949 35.492,398.994 36.080,398.873 36.690 M1.200 39.624 C 1.200 40.604,1.042 41.149,0.800 41.000 C 0.580 40.864,0.400 40.133,0.400 39.376 C 0.400 38.619,0.580 38.000,0.800 38.000 C 1.020 38.000,1.200 38.731,1.200 39.624 M399.600 39.600 C 399.600 40.480,399.420 41.200,399.200 41.200 C 398.980 41.200,398.800 40.480,398.800 39.600 C 398.800 38.720,398.980 38.000,399.200 38.000 C 399.420 38.000,399.600 38.720,399.600 39.600 M1.200 417.200 C 1.200 418.080,1.020 418.800,0.800 418.800 C 0.357 418.800,0.243 416.290,0.667 415.867 C 1.134 415.400,1.200 415.565,1.200 417.200 M399.600 417.424 C 399.600 418.181,399.420 418.800,399.200 418.800 C 398.980 418.800,398.800 418.069,398.800 417.176 C 398.800 416.196,398.958 415.651,399.200 415.800 C 399.420 415.936,399.600 416.667,399.600 417.424 M1.722 421.307 C 1.360 421.931,0.883 421.169,1.105 420.321 C 1.323 419.486,1.348 419.481,1.617 420.221 C 1.773 420.650,1.820 421.138,1.722 421.307 M398.761 421.373 C 398.232 421.942,398.002 421.477,398.283 420.404 C 398.516 419.514,398.556 419.501,398.822 420.221 C 398.980 420.650,398.953 421.168,398.761 421.373 M2.400 423.200 C 2.400 423.640,2.220 424.000,2.000 424.000 C 1.780 424.000,1.600 423.640,1.600 423.200 C 1.600 422.760,1.780 422.400,2.000 422.400 C 2.220 422.400,2.400 422.760,2.400 423.200 M398.400 423.200 C 398.400 423.640,398.220 424.000,398.000 424.000 C 397.780 424.000,397.600 423.640,397.600 423.200 C 397.600 422.760,397.780 422.400,398.000 422.400 C 398.220 422.400,398.400 422.760,398.400 423.200 M3.602 427.346 C 3.604 427.596,3.862 428.292,4.175 428.893 C 4.489 429.495,4.621 430.063,4.469 430.157 C 4.317 430.251,3.857 429.579,3.446 428.664 C 3.035 427.749,2.520 426.612,2.302 426.138 C 2.084 425.664,2.042 425.056,2.208 424.788 C 2.503 424.309,3.597 426.315,3.602 427.346 M397.723 426.092 C 397.491 426.591,396.965 427.749,396.554 428.664 C 396.143 429.579,395.662 430.238,395.484 430.128 C 395.307 430.019,395.325 429.720,395.526 429.464 C 395.726 429.209,396.212 427.956,396.606 426.681 C 397.096 425.093,397.451 424.491,397.733 424.773 C 398.014 425.054,398.011 425.470,397.723 426.092 M6.204 433.530 C 5.913 433.820,4.786 432.746,5.007 432.389 C 5.116 432.213,4.991 431.997,4.731 431.910 C 4.446 431.815,4.370 431.456,4.539 431.014 C 4.778 430.391,4.946 430.517,5.605 431.810 C 6.036 432.655,6.305 433.428,6.204 433.530 M395.600 431.424 C 395.600 431.741,395.409 432.000,395.176 432.000 C 394.943 432.000,394.851 432.160,394.972 432.355 C 395.204 432.731,394.106 433.839,393.802 433.536 C 393.704 433.437,393.933 432.713,394.312 431.926 C 394.987 430.522,395.600 430.283,395.600 431.424 M7.903 436.007 C 8.620 437.103,9.070 437.994,8.903 437.987 C 8.262 437.960,7.303 436.954,7.009 435.998 C 6.840 435.449,6.522 434.775,6.302 434.500 C 6.082 434.225,6.059 434.003,6.251 434.007 C 6.443 434.011,7.186 434.911,7.903 436.007 M393.340 435.200 C 393.011 435.860,392.564 436.400,392.348 436.400 C 392.132 436.400,392.274 435.860,392.664 435.200 C 393.054 434.540,393.500 434.000,393.656 434.000 C 393.811 434.000,393.669 434.540,393.340 435.200 M391.908 437.275 C 391.821 437.536,391.536 437.821,391.275 437.908 C 390.982 438.006,390.893 437.823,391.043 437.433 C 391.322 436.706,392.148 436.555,391.908 437.275 M10.438 439.671 C 10.793 440.334,10.774 440.436,10.340 440.186 C 9.219 439.541,8.816 439.098,9.032 438.748 C 9.325 438.274,9.888 438.644,10.438 439.671 M390.984 439.225 C 390.858 439.429,390.384 439.795,389.929 440.038 C 389.080 440.493,389.131 440.169,390.108 438.904 C 390.536 438.350,391.343 438.645,390.984 439.225 M13.054 442.700 C 15.423 445.318,15.245 445.808,12.800 443.400 C 10.934 441.562,10.426 440.800,11.067 440.800 C 11.214 440.800,12.108 441.655,13.054 442.700 M389.200 441.115 C 389.200 441.288,388.300 442.317,387.200 443.400 C 384.770 445.793,384.593 445.464,386.863 442.772 C 388.417 440.928,389.200 440.373,389.200 441.115 M382.387 531.200 C 381.957 534.521,381.116 537.901,380.371 539.295 C 380.167 539.677,380.000 540.187,380.000 540.430 C 380.000 541.668,375.976 549.144,375.100 549.533 C 374.935 549.607,374.800 549.936,374.800 550.266 C 374.800 552.788,362.902 561.937,358.200 563.031 C 357.540 563.185,356.747 563.510,356.439 563.755 C 355.573 564.441,44.226 564.386,43.540 563.700 C 43.265 563.425,42.698 563.200,42.281 563.200 C 41.273 563.200,34.800 560.068,34.800 559.581 C 34.800 559.371,34.520 559.200,34.177 559.200 C 33.384 559.200,25.200 551.046,25.200 550.257 C 25.200 549.932,25.049 549.607,24.865 549.533 C 24.397 549.347,21.200 543.960,21.200 543.358 C 21.200 543.087,20.947 542.355,20.637 541.732 C 19.135 538.711,18.175 535.435,17.630 531.471 C 17.132 527.848,17.011 447.600,17.504 447.600 C 17.671 447.600,18.293 448.050,18.887 448.600 C 19.480 449.150,20.091 449.600,20.245 449.600 C 20.399 449.600,21.081 450.010,21.762 450.511 C 22.443 451.011,23.720 451.776,24.600 452.211 C 25.480 452.645,26.290 453.110,26.400 453.244 C 26.510 453.378,27.320 453.730,28.200 454.027 C 29.080 454.324,29.980 454.689,30.200 454.837 C 30.420 454.986,31.230 455.239,32.000 455.400 C 32.770 455.561,33.598 455.851,33.840 456.046 C 34.083 456.240,35.163 456.517,36.240 456.661 C 37.318 456.805,38.328 457.120,38.485 457.362 C 38.892 457.986,361.108 457.986,361.515 457.362 C 361.672 457.120,362.682 456.805,363.760 456.661 C 364.837 456.517,365.917 456.240,366.160 456.046 C 366.402 455.851,367.230 455.561,368.000 455.400 C 368.770 455.239,369.580 454.986,369.800 454.837 C 370.020 454.689,370.920 454.324,371.800 454.027 C 372.680 453.730,373.490 453.378,373.600 453.244 C 373.710 453.110,374.520 452.645,375.400 452.211 C 376.280 451.776,377.557 451.011,378.238 450.511 C 378.919 450.010,379.603 449.600,379.759 449.600 C 379.916 449.600,380.619 449.062,381.322 448.405 L 382.600 447.211 382.713 487.505 C 382.790 515.087,382.687 528.873,382.387 531.200 M385.108 529.100 C 385.001 530.248,384.891 530.434,384.639 529.894 C 384.458 529.505,384.460 528.155,384.643 526.894 C 385.021 524.292,385.393 526.055,385.108 529.100 M15.560 528.476 C 15.582 529.288,15.420 530.064,15.200 530.200 C 14.947 530.356,14.815 529.447,14.840 527.724 C 14.882 524.857,15.479 525.482,15.560 528.476 M16.000 532.400 C 16.000 533.060,15.820 533.600,15.600 533.600 C 15.155 533.600,15.048 531.885,15.467 531.467 C 15.919 531.015,16.000 531.157,16.000 532.400 M384.800 532.624 C 384.800 533.161,384.620 533.600,384.400 533.600 C 384.180 533.600,384.000 533.049,384.000 532.376 C 384.000 531.663,384.167 531.256,384.400 531.400 C 384.620 531.536,384.800 532.087,384.800 532.624 M16.794 535.700 C 16.797 536.085,16.620 536.400,16.400 536.400 C 16.180 536.400,16.003 535.815,16.006 535.100 C 16.011 534.114,16.106 533.945,16.400 534.400 C 16.613 534.730,16.791 535.315,16.794 535.700 M384.000 535.400 C 384.000 535.950,383.820 536.400,383.600 536.400 C 383.153 536.400,383.052 535.082,383.467 534.667 C 383.908 534.226,384.000 534.353,384.000 535.400 M17.381 538.241 C 17.530 539.033,17.550 539.783,17.426 539.908 C 17.302 540.032,17.200 539.754,17.200 539.290 C 17.200 538.827,17.020 538.336,16.800 538.200 C 16.305 537.894,16.270 536.800,16.755 536.800 C 16.951 536.800,17.233 537.448,17.381 538.241 M383.600 537.400 C 383.600 537.730,383.420 538.000,383.200 538.000 C 382.980 538.000,382.800 537.730,382.800 537.400 C 382.800 537.070,382.980 536.800,383.200 536.800 C 383.420 536.800,383.600 537.070,383.600 537.400 M19.139 542.851 C 22.867 552.535,33.185 562.927,40.713 564.581 C 42.320 564.934,42.785 565.600,41.424 565.600 C 40.861 565.600,40.400 565.409,40.400 565.176 C 40.400 564.943,40.232 564.856,40.028 564.983 C 39.823 565.109,39.555 565.051,39.432 564.852 C 39.309 564.653,38.577 564.372,37.804 564.227 C 37.032 564.082,36.400 563.792,36.400 563.582 C 36.400 563.372,36.124 563.200,35.787 563.200 C 35.451 563.200,35.078 562.946,34.959 562.636 C 34.839 562.326,34.262 561.952,33.674 561.804 C 32.464 561.500,32.560 561.577,28.101 557.374 C 26.287 555.663,24.881 554.186,24.977 554.090 C 25.072 553.994,24.684 553.483,24.113 552.954 C 23.542 552.425,23.185 551.881,23.320 551.746 C 23.455 551.611,23.169 551.169,22.683 550.764 C 22.197 550.358,21.975 550.021,22.189 550.013 C 22.403 550.006,22.175 549.718,21.682 549.373 C 21.190 549.028,20.890 548.578,21.017 548.373 C 21.144 548.168,21.071 548.000,20.855 548.000 C 20.640 548.000,20.345 547.460,20.200 546.800 C 20.055 546.140,19.751 545.600,19.525 545.600 C 19.299 545.600,19.218 545.330,19.345 545.000 C 19.471 544.670,19.401 544.400,19.187 544.400 C 18.974 544.400,18.800 544.130,18.800 543.800 C 18.800 543.470,18.599 543.200,18.353 543.200 C 18.104 543.200,17.999 542.847,18.116 542.400 C 18.231 541.960,18.162 541.600,17.963 541.600 C 17.763 541.600,17.600 541.330,17.600 541.000 C 17.600 539.740,18.236 540.505,19.139 542.851 M382.400 541.000 C 382.400 541.330,382.237 541.600,382.037 541.600 C 381.838 541.600,381.769 541.960,381.884 542.400 C 381.999 542.840,381.907 543.200,381.678 543.200 C 381.450 543.200,381.145 543.740,381.000 544.400 C 380.855 545.060,380.585 545.600,380.400 545.600 C 380.215 545.600,379.945 546.140,379.800 546.800 C 379.655 547.460,379.360 548.000,379.145 548.000 C 378.929 548.000,378.856 548.168,378.983 548.373 C 379.110 548.578,378.810 549.028,378.318 549.373 C 377.825 549.718,377.597 550.006,377.811 550.013 C 378.025 550.021,377.803 550.358,377.317 550.764 C 376.831 551.169,376.545 551.611,376.680 551.746 C 376.815 551.881,376.458 552.425,375.887 552.954 C 375.316 553.483,374.928 553.994,375.023 554.090 C 375.119 554.186,373.713 555.663,371.899 557.374 C 367.440 561.577,367.536 561.500,366.326 561.804 C 365.738 561.952,365.161 562.326,365.041 562.636 C 364.922 562.946,364.549 563.200,364.213 563.200 C 363.876 563.200,363.600 563.366,363.600 563.568 C 363.600 563.771,363.015 564.062,362.300 564.214 C 361.585 564.367,360.814 564.641,360.587 564.823 C 360.359 565.005,359.909 564.987,359.587 564.783 C 359.094 564.472,359.111 564.411,359.690 564.406 C 365.295 564.356,377.279 552.155,380.861 542.851 C 381.764 540.505,382.400 539.740,382.400 541.000 M45.167 565.856 C 45.258 565.935,44.943 566.000,44.467 566.000 C 43.990 566.000,43.470 566.014,43.310 566.030 C 43.151 566.047,42.953 565.859,42.871 565.613 C 42.737 565.212,44.655 565.415,45.167 565.856 M357.123 565.630 C 357.045 565.866,356.850 566.047,356.690 566.030 C 356.531 566.014,355.995 565.982,355.500 565.960 C 354.637 565.922,354.641 565.907,355.600 565.600 C 357.034 565.141,357.285 565.146,357.123 565.630 M354.400 566.400 C 354.400 566.666,302.667 566.800,200.000 566.800 C 97.333 566.800,45.600 566.666,45.600 566.400 C 45.600 566.134,97.333 566.000,200.000 566.000 C 302.667 566.000,354.400 566.134,354.400 566.400 " stroke="none" fill="#282828" fill-rule="evenodd"></path><path id="path1" d="M381.630 448.568 C 381.097 449.135,380.437 449.600,380.164 449.600 C 379.890 449.600,379.607 449.735,379.533 449.900 C 379.228 450.587,376.571 452.064,369.980 455.211 C 369.639 455.374,368.334 455.736,367.080 456.017 C 365.826 456.298,364.800 456.666,364.800 456.836 C 364.800 457.006,363.360 457.271,361.600 457.424 C 359.840 457.578,358.400 457.860,358.400 458.052 C 358.400 458.249,289.676 458.400,200.000 458.400 C 110.324 458.400,41.600 458.249,41.600 458.052 C 41.600 457.860,40.160 457.578,38.400 457.424 C 36.640 457.271,35.200 457.006,35.200 456.836 C 35.200 456.666,34.174 456.298,32.920 456.017 C 31.666 455.736,30.361 455.374,30.020 455.211 C 23.429 452.064,20.772 450.587,20.467 449.900 C 20.393 449.735,20.106 449.600,19.829 449.600 C 19.551 449.600,18.998 449.240,18.600 448.800 C 18.202 448.360,17.724 448.000,17.538 448.000 C 17.085 448.000,17.099 529.090,17.552 529.371 C 17.746 529.490,18.032 530.940,18.186 532.592 C 18.341 534.243,18.607 535.681,18.777 535.786 C 18.947 535.891,19.316 537.062,19.598 538.388 C 19.879 539.715,20.257 540.800,20.437 540.800 C 20.617 540.800,20.882 541.430,21.026 542.200 C 21.171 542.970,21.435 543.600,21.613 543.600 C 21.791 543.600,22.052 544.125,22.193 544.767 C 22.334 545.408,22.691 546.026,22.987 546.140 C 23.283 546.253,23.643 546.883,23.787 547.540 C 23.931 548.196,24.308 548.833,24.624 548.954 C 24.941 549.076,25.200 549.450,25.200 549.786 C 25.200 550.568,33.012 558.447,34.600 559.267 C 35.260 559.608,37.181 560.616,38.868 561.507 C 43.889 564.160,33.549 564.000,200.077 563.997 C 348.289 563.994,356.169 563.936,358.326 562.828 C 358.697 562.638,360.620 561.698,362.600 560.741 C 366.335 558.935,374.800 551.341,374.800 549.796 C 374.800 549.455,375.039 549.083,375.332 548.971 C 375.624 548.859,376.108 548.144,376.407 547.383 C 376.705 546.623,377.081 546.000,377.243 546.000 C 377.404 546.000,377.655 545.460,377.800 544.800 C 377.945 544.140,378.221 543.600,378.414 543.600 C 378.606 543.600,378.882 542.970,379.026 542.200 C 379.171 541.430,379.420 540.800,379.581 540.800 C 379.741 540.800,380.101 539.765,380.381 538.500 C 380.660 537.235,381.031 536.020,381.205 535.800 C 381.379 535.580,381.651 534.140,381.809 532.600 C 381.968 531.060,382.256 529.601,382.450 529.357 C 382.651 529.105,382.760 511.340,382.702 488.224 L 382.600 447.535 381.630 448.568 " stroke="none" fill="#c4c4c4" fill-rule="evenodd"></path><path id="path2" d="M40.605 1.495 C 39.728 1.585,38.828 1.803,38.605 1.979 C 38.382 2.155,37.349 2.422,36.309 2.573 C 35.269 2.723,34.328 2.992,34.218 3.171 C 34.108 3.349,33.294 3.611,32.409 3.752 C 31.524 3.894,30.800 4.187,30.800 4.405 C 30.800 4.622,30.502 4.800,30.139 4.800 C 29.293 4.800,25.200 6.726,25.200 7.124 C 25.200 7.289,24.705 7.648,24.100 7.920 C 23.495 8.193,22.460 8.708,21.800 9.064 C 20.401 9.820,10.800 19.385,10.800 20.022 C 10.800 20.259,10.350 21.043,9.800 21.764 C 9.250 22.486,8.800 23.269,8.800 23.504 C 8.800 23.740,8.665 23.993,8.500 24.067 C 7.998 24.290,5.679 29.283,5.187 31.200 C 4.933 32.190,4.570 33.299,4.381 33.665 C 4.192 34.031,3.915 35.291,3.765 36.465 C 3.616 37.639,3.293 38.853,3.047 39.161 C 2.399 39.975,2.408 417.240,3.055 418.039 C 3.306 418.347,3.643 419.583,3.804 420.784 C 3.966 421.985,4.239 423.245,4.410 423.584 C 4.582 423.923,4.958 425.010,5.246 426.000 C 5.704 427.573,7.456 431.267,9.229 434.400 C 9.540 434.950,10.471 436.242,11.297 437.272 C 12.124 438.301,12.800 439.301,12.800 439.493 C 12.800 439.907,18.959 446.000,19.378 446.000 C 19.536 446.000,20.434 446.630,21.374 447.400 C 22.314 448.170,23.190 448.800,23.321 448.800 C 23.452 448.800,24.334 449.317,25.280 449.950 C 26.226 450.582,27.450 451.224,28.000 451.377 C 28.870 451.619,30.126 452.138,32.400 453.197 C 32.730 453.351,33.990 453.697,35.200 453.967 C 36.410 454.237,37.832 454.670,38.361 454.929 C 39.093 455.288,77.488 455.400,200.000 455.400 C 322.512 455.400,360.907 455.288,361.639 454.929 C 362.168 454.670,363.590 454.237,364.800 453.967 C 366.010 453.697,367.270 453.351,367.600 453.197 C 369.861 452.144,371.130 451.618,372.000 451.373 C 372.550 451.217,373.752 450.575,374.672 449.945 C 375.592 449.315,376.473 448.800,376.631 448.800 C 376.789 448.800,377.686 448.170,378.626 447.400 C 379.566 446.630,380.466 446.000,380.626 446.000 C 381.055 446.000,388.000 439.104,388.000 438.678 C 388.000 438.478,388.495 437.659,389.100 436.858 C 390.352 435.198,390.758 434.511,392.811 430.574 C 393.622 429.019,394.509 426.813,394.783 425.672 C 395.056 424.531,395.432 423.504,395.617 423.389 C 395.802 423.275,396.067 422.331,396.204 421.291 C 396.342 420.251,396.668 418.968,396.927 418.439 C 397.605 417.063,397.615 39.183,396.937 38.361 C 396.683 38.053,396.347 36.943,396.191 35.895 C 396.035 34.847,395.764 33.901,395.589 33.793 C 395.413 33.685,395.147 32.832,394.998 31.898 C 394.732 30.237,392.094 24.331,391.500 24.067 C 391.335 23.993,391.200 23.740,391.200 23.504 C 391.200 23.269,390.750 22.486,390.200 21.764 C 389.650 21.043,389.200 20.259,389.200 20.022 C 389.200 19.385,379.599 9.820,378.200 9.064 C 377.540 8.708,376.505 8.193,375.900 7.920 C 375.295 7.648,374.800 7.302,374.800 7.153 C 374.800 6.748,371.957 5.342,370.484 5.018 C 369.778 4.863,369.200 4.573,369.200 4.373 C 369.200 4.173,368.476 3.894,367.591 3.752 C 366.706 3.611,365.892 3.349,365.782 3.171 C 365.672 2.992,364.731 2.723,363.691 2.573 C 362.651 2.422,361.547 2.097,361.239 1.850 C 360.700 1.418,44.733 1.068,40.605 1.495 " stroke="none" fill="#ec1c24" fill-rule="evenodd"></path><path id="path3" d="M31.192 1.410 C 30.552 2.181,30.775 2.390,31.800 1.978 C 32.240 1.801,32.364 1.644,32.076 1.628 C 31.788 1.613,31.664 1.420,31.800 1.200 C 32.182 0.581,31.758 0.728,31.192 1.410 M368.000 1.200 C 368.533 1.545,368.533 1.592,368.000 1.622 C 367.604 1.645,367.671 1.765,368.200 1.978 C 368.640 2.155,369.071 2.237,369.157 2.159 C 369.419 1.925,368.333 0.800,367.851 0.806 C 367.603 0.809,367.670 0.987,368.000 1.200 M27.200 3.309 C 27.200 3.495,27.040 3.549,26.845 3.428 C 26.650 3.307,26.268 3.477,25.996 3.804 C 25.724 4.132,25.209 4.414,24.851 4.432 C 24.416 4.453,24.370 4.532,24.713 4.669 C 24.996 4.783,25.508 4.642,25.852 4.356 C 26.197 4.071,26.862 3.779,27.330 3.707 C 28.511 3.527,29.151 2.823,28.060 2.905 C 27.587 2.941,27.200 3.123,27.200 3.309 M371.449 3.209 C 371.651 3.411,372.201 3.636,372.670 3.707 C 373.138 3.779,373.765 4.039,374.062 4.286 C 374.360 4.532,374.857 4.794,375.168 4.867 C 375.479 4.940,376.063 5.315,376.467 5.700 C 376.870 6.085,377.425 6.394,377.700 6.386 C 377.975 6.378,377.789 6.144,377.287 5.865 C 376.786 5.586,376.499 5.234,376.651 5.082 C 376.803 4.930,376.363 4.693,375.673 4.555 C 374.983 4.417,374.214 4.057,373.964 3.756 C 373.714 3.455,373.350 3.307,373.155 3.428 C 372.960 3.549,372.800 3.495,372.800 3.309 C 372.800 3.123,372.413 2.941,371.940 2.905 C 371.417 2.866,371.225 2.985,371.449 3.209 M23.382 5.171 C 23.508 5.375,23.235 5.662,22.776 5.808 C 22.316 5.954,22.028 6.161,22.136 6.269 C 22.422 6.555,24.000 5.639,24.000 5.186 C 24.000 4.974,23.809 4.800,23.576 4.800 C 23.343 4.800,23.256 4.967,23.382 5.171 M20.732 6.760 C 20.468 7.183,19.979 7.432,19.629 7.322 C 19.095 7.154,19.088 7.187,19.582 7.536 C 20.283 8.033,21.303 7.543,21.435 6.645 C 21.560 5.790,21.313 5.830,20.732 6.760 M378.556 6.545 C 378.693 7.524,379.683 8.055,380.418 7.544 C 380.924 7.192,380.923 7.160,380.408 7.300 C 380.082 7.389,379.509 7.088,379.134 6.631 C 378.511 5.872,378.462 5.864,378.556 6.545 M16.562 9.642 C 16.143 10.105,15.845 10.600,15.900 10.742 C 15.955 10.884,15.820 11.000,15.600 11.000 C 15.380 11.000,15.185 11.150,15.167 11.333 C 15.097 12.028,15.497 11.977,16.198 11.202 C 16.597 10.761,16.778 10.400,16.600 10.400 C 16.422 10.400,16.602 10.040,17.000 9.600 C 17.398 9.160,17.634 8.800,17.524 8.800 C 17.414 8.800,16.981 9.179,16.562 9.642 M382.962 9.500 C 383.381 9.995,383.578 10.400,383.400 10.400 C 383.222 10.400,383.398 10.756,383.791 11.191 C 384.185 11.625,384.675 11.877,384.880 11.751 C 385.317 11.481,384.940 11.008,384.267 10.982 C 384.010 10.972,383.838 10.768,383.884 10.529 C 383.930 10.291,383.570 9.759,383.084 9.348 L 382.200 8.600 382.962 9.500 M15.612 14.188 C 13.759 16.051,12.323 17.628,12.421 17.692 C 12.519 17.756,14.119 16.231,15.975 14.304 C 17.832 12.377,19.268 10.800,19.167 10.800 C 19.065 10.800,17.466 12.324,15.612 14.188 M384.011 14.204 C 385.875 16.186,387.482 17.755,387.582 17.689 C 387.682 17.623,386.157 16.001,384.193 14.085 L 380.622 10.600 384.011 14.204 M13.788 12.420 C 13.407 13.035,13.928 13.432,14.442 12.918 C 14.729 12.631,14.736 12.407,14.462 12.239 C 14.239 12.100,13.935 12.182,13.788 12.420 M385.439 12.338 C 385.300 12.561,385.382 12.865,385.620 13.012 C 386.235 13.393,386.632 12.872,386.118 12.358 C 385.831 12.071,385.607 12.064,385.439 12.338 M12.369 13.700 C 11.962 15.031,12.079 15.252,12.830 14.573 C 13.254 14.189,13.600 13.814,13.600 13.738 C 13.600 13.582,12.417 13.545,12.369 13.700 M386.962 14.354 C 387.886 15.380,387.957 15.392,387.827 14.500 C 387.770 14.115,387.381 13.734,386.962 13.654 C 386.213 13.509,386.213 13.521,386.962 14.354 M10.511 16.500 C 9.729 17.511,9.463 18.132,9.936 17.840 C 10.410 17.547,11.357 16.000,11.063 16.000 C 10.972 16.000,10.724 16.225,10.511 16.500 M389.131 16.652 C 390.015 18.264,390.907 19.141,390.222 17.725 C 389.883 17.024,389.406 16.328,389.163 16.177 C 388.846 15.981,388.837 16.116,389.131 16.652 M7.864 19.529 C 7.129 20.341,6.987 21.200,7.587 21.200 C 7.801 21.200,7.860 20.900,7.719 20.534 C 7.547 20.085,7.617 19.963,7.935 20.160 C 8.204 20.326,8.511 20.175,8.652 19.808 C 9.022 18.844,8.615 18.700,7.864 19.529 M391.277 19.400 C 391.371 19.840,391.684 20.148,391.973 20.084 C 392.300 20.011,392.409 20.199,392.262 20.584 C 392.132 20.923,392.199 21.200,392.413 21.200 C 393.092 21.200,392.829 20.150,391.954 19.362 C 391.119 18.611,391.110 18.612,391.277 19.400 M5.600 24.167 C 5.600 24.478,5.375 24.824,5.100 24.935 C 4.723 25.087,4.720 25.145,5.086 25.168 C 5.353 25.186,5.765 24.840,6.000 24.400 C 6.290 23.858,6.295 23.600,6.014 23.600 C 5.786 23.600,5.600 23.855,5.600 24.167 M394.000 24.400 C 394.235 24.840,394.647 25.186,394.914 25.168 C 395.280 25.145,395.277 25.087,394.900 24.935 C 394.625 24.824,394.400 24.478,394.400 24.167 C 394.400 23.855,394.214 23.600,393.986 23.600 C 393.705 23.600,393.710 23.858,394.000 24.400 M4.623 31.700 C 4.208 33.067,4.107 33.981,4.391 33.805 C 4.565 33.698,4.787 33.068,4.885 32.405 C 5.063 31.193,4.906 30.770,4.623 31.700 M395.106 32.618 C 395.210 33.165,395.428 33.694,395.590 33.794 C 395.752 33.894,395.799 33.529,395.694 32.982 C 395.590 32.435,395.372 31.906,395.210 31.806 C 395.048 31.706,395.001 32.071,395.106 32.618 M3.180 37.490 C 3.071 38.419,3.133 39.027,3.320 38.840 C 3.506 38.654,3.596 37.894,3.519 37.151 C 3.383 35.833,3.375 35.842,3.180 37.490 M0.406 39.876 C 0.403 40.358,0.580 40.864,0.800 41.000 C 1.309 41.315,1.309 40.388,0.800 39.600 C 0.485 39.112,0.411 39.164,0.406 39.876 M399.049 39.930 C 398.872 40.442,398.833 40.967,398.963 41.097 C 399.378 41.511,399.670 40.900,399.518 39.934 L 399.371 39.000 399.049 39.930 M0.700 415.831 C 0.535 415.997,0.400 416.499,0.400 416.947 C 0.400 417.535,0.521 417.639,0.838 417.322 C 1.078 417.082,1.213 416.580,1.138 416.207 C 1.062 415.833,0.865 415.664,0.700 415.831 M398.800 416.353 C 398.800 416.793,398.980 417.264,399.200 417.400 C 399.420 417.536,399.600 417.287,399.600 416.847 C 399.600 416.407,399.420 415.936,399.200 415.800 C 398.980 415.664,398.800 415.913,398.800 416.353 M3.200 419.576 C 3.200 420.223,3.342 420.841,3.516 420.948 C 3.690 421.056,3.761 420.527,3.673 419.772 C 3.476 418.091,3.200 417.977,3.200 419.576 M396.556 418.971 C 396.435 419.285,396.404 419.960,396.486 420.471 C 396.595 421.154,396.688 421.004,396.837 419.900 C 397.047 418.347,396.936 417.981,396.556 418.971 M2.139 425.015 C 1.926 425.570,3.125 427.408,3.474 427.060 C 3.803 426.730,3.083 425.625,2.695 425.865 C 2.428 426.030,2.356 425.810,2.500 425.263 C 2.758 424.275,2.493 424.093,2.139 425.015 M397.500 425.262 C 397.644 425.810,397.572 426.030,397.305 425.865 C 397.073 425.722,396.775 425.888,396.642 426.235 C 396.241 427.280,396.361 427.359,397.200 426.600 C 398.050 425.831,398.235 424.993,397.637 424.623 C 397.438 424.500,397.376 424.787,397.500 425.262 M3.188 428.378 C 3.417 428.805,3.786 429.268,4.009 429.405 C 4.231 429.543,4.292 429.851,4.145 430.089 C 3.979 430.357,4.064 430.408,4.364 430.222 C 4.735 429.993,4.702 429.755,4.226 429.229 C 3.882 428.848,3.600 428.326,3.600 428.069 C 3.600 427.811,3.414 427.600,3.186 427.600 C 2.901 427.600,2.902 427.843,3.188 428.378 M396.400 428.069 C 396.400 428.326,396.118 428.848,395.774 429.229 C 395.298 429.755,395.265 429.993,395.636 430.222 C 395.936 430.408,396.021 430.357,395.855 430.089 C 395.708 429.851,395.769 429.543,395.991 429.405 C 396.656 428.994,397.292 427.600,396.814 427.600 C 396.586 427.600,396.400 427.811,396.400 428.069 M5.227 433.032 C 5.794 433.716,6.529 433.786,6.312 433.135 C 6.226 432.879,5.841 432.624,5.456 432.567 C 4.893 432.484,4.848 432.576,5.227 433.032 M393.742 432.893 C 393.328 433.563,394.015 433.757,394.629 433.143 C 395.175 432.597,395.172 432.533,394.601 432.533 C 394.251 432.533,393.865 432.695,393.742 432.893 M7.049 435.883 C 7.318 437.363,7.600 437.572,7.600 436.290 C 7.600 435.717,7.431 435.143,7.225 435.015 C 7.010 434.883,6.935 435.253,7.049 435.883 M392.375 435.646 C 392.023 436.305,392.034 436.455,392.426 436.325 C 392.703 436.232,392.975 435.851,393.030 435.478 C 393.164 434.562,392.922 434.625,392.375 435.646 M11.634 438.247 C 12.165 438.933,12.680 439.423,12.779 439.335 C 12.877 439.247,12.443 438.686,11.813 438.088 L 10.669 437.000 11.634 438.247 M9.020 439.233 C 9.507 440.020,10.913 440.532,10.485 439.765 C 10.268 439.377,9.799 439.017,9.443 438.965 C 9.087 438.913,8.897 439.033,9.020 439.233 M389.548 439.697 C 389.184 440.377,389.228 440.413,389.947 440.028 C 391.018 439.455,391.311 438.933,390.561 438.933 C 390.229 438.933,389.773 439.277,389.548 439.697 M387.923 441.500 C 387.592 441.885,387.210 442.515,387.073 442.900 C 386.937 443.285,386.646 443.600,386.427 443.600 C 386.207 443.600,385.818 444.005,385.562 444.500 C 385.169 445.261,385.290 445.218,386.348 444.225 C 387.037 443.579,387.600 442.814,387.600 442.525 C 387.600 442.236,387.801 442.045,388.047 442.100 C 388.293 442.155,388.547 441.885,388.611 441.500 C 388.676 441.115,388.683 440.800,388.627 440.800 C 388.570 440.800,388.253 441.115,387.923 441.500 M12.425 442.425 C 12.411 442.769,12.963 443.579,13.652 444.225 C 14.710 445.218,14.831 445.261,14.438 444.500 C 14.182 444.005,13.792 443.600,13.573 443.600 C 13.354 443.600,13.011 443.195,12.812 442.700 C 12.587 442.138,12.441 442.035,12.425 442.425 M20.488 447.013 C 21.086 447.643,21.647 448.077,21.735 447.979 C 21.823 447.880,21.333 447.365,20.647 446.834 L 19.400 445.869 20.488 447.013 M379.078 447.013 C 378.460 447.556,378.114 448.000,378.308 448.000 C 378.502 448.000,379.083 447.550,379.600 447.000 C 380.795 445.728,380.531 445.734,379.078 447.013 M27.806 451.610 C 27.906 451.772,28.435 451.990,28.982 452.094 C 29.529 452.199,29.894 452.152,29.794 451.990 C 29.694 451.828,29.165 451.610,28.618 451.506 C 28.071 451.401,27.706 451.448,27.806 451.610 M371.400 451.485 C 370.175 451.780,369.798 452.328,370.976 452.103 C 371.546 451.994,372.110 451.746,372.230 451.552 C 372.349 451.359,372.392 451.221,372.324 451.246 C 372.256 451.272,371.840 451.379,371.400 451.485 M35.941 454.501 C 36.143 454.703,36.733 454.801,37.254 454.719 C 38.055 454.593,37.998 454.537,36.887 454.352 C 36.093 454.221,35.719 454.279,35.941 454.501 M363.000 454.400 L 361.800 454.705 362.876 454.753 C 363.468 454.779,364.064 454.620,364.200 454.400 C 364.336 454.180,364.392 454.021,364.324 454.047 C 364.256 454.073,363.660 454.232,363.000 454.400 M199.800 455.600 L 41.800 455.802 199.676 455.901 C 304.603 455.967,357.636 455.866,357.800 455.600 C 357.936 455.380,357.992 455.245,357.924 455.299 C 357.856 455.354,286.700 455.489,199.800 455.600 M35.560 456.920 C 35.746 457.106,36.506 457.196,37.249 457.119 C 38.567 456.983,38.558 456.975,36.910 456.780 C 35.981 456.671,35.373 456.733,35.560 456.920 M363.000 456.800 L 361.400 457.086 362.876 457.143 C 363.688 457.174,364.464 457.020,364.600 456.800 C 364.736 456.580,364.792 456.426,364.724 456.457 C 364.656 456.488,363.880 456.642,363.000 456.800 M384.618 526.726 C 384.453 527.895,384.413 528.946,384.529 529.062 C 384.814 529.347,385.331 525.787,385.100 525.125 C 385.000 524.836,384.782 525.557,384.618 526.726 M14.880 526.200 C 14.880 526.860,15.024 527.850,15.200 528.400 C 15.511 529.372,15.520 529.367,15.520 528.200 C 15.520 527.540,15.376 526.550,15.200 526.000 C 14.889 525.028,14.880 525.033,14.880 526.200 M15.467 531.467 C 15.320 531.613,15.215 532.198,15.234 532.767 C 15.268 533.781,15.275 533.779,15.621 532.620 C 15.985 531.403,15.931 531.002,15.467 531.467 M384.240 532.266 C 384.608 533.799,384.800 533.944,384.800 532.690 C 384.800 532.117,384.613 531.532,384.384 531.390 C 384.111 531.221,384.062 531.523,384.240 532.266 M17.968 533.900 C 18.159 535.281,18.187 535.309,18.319 534.251 C 18.398 533.619,18.305 532.945,18.112 532.752 C 17.910 532.550,17.849 533.040,17.968 533.900 M381.756 532.971 C 381.635 533.285,381.604 533.960,381.686 534.471 C 381.795 535.154,381.888 535.004,382.037 533.900 C 382.247 532.347,382.136 531.981,381.756 532.971 M16.244 535.000 C 16.573 536.471,16.802 536.790,16.794 535.767 C 16.791 535.345,16.605 534.730,16.382 534.400 C 16.085 533.962,16.048 534.124,16.244 535.000 M19.106 538.218 C 19.210 538.765,19.428 539.294,19.590 539.394 C 19.752 539.494,19.799 539.129,19.694 538.582 C 19.590 538.035,19.372 537.506,19.210 537.406 C 19.048 537.306,19.001 537.671,19.106 538.218 M380.587 537.800 C 380.484 538.130,380.312 538.679,380.205 539.021 C 380.097 539.362,380.166 539.545,380.357 539.427 C 380.548 539.309,380.791 538.759,380.897 538.206 C 381.106 537.113,380.890 536.830,380.587 537.800 M17.858 541.451 C 18.109 541.554,18.240 542.035,18.149 542.519 C 17.994 543.343,18.007 543.348,18.342 542.600 C 18.748 541.693,18.575 541.185,17.876 541.232 C 17.532 541.254,17.527 541.315,17.858 541.451 M381.474 541.500 C 381.378 541.665,381.461 542.160,381.658 542.600 C 381.993 543.348,382.006 543.343,381.851 542.519 C 381.760 542.035,381.891 541.554,382.142 541.451 C 382.473 541.315,382.468 541.254,382.124 541.232 C 381.862 541.214,381.569 541.335,381.474 541.500 M18.990 543.400 C 19.164 543.840,19.291 544.558,19.271 544.995 C 19.243 545.617,19.313 545.665,19.590 545.217 C 19.803 544.871,19.775 544.317,19.518 543.822 C 18.930 542.689,18.605 542.429,18.990 543.400 M380.502 543.735 C 380.267 544.251,380.215 544.900,380.386 545.177 C 380.585 545.500,380.771 545.198,380.901 544.341 C 381.154 542.679,381.053 542.526,380.502 543.735 M20.170 546.278 C 20.225 546.651,20.497 547.032,20.774 547.125 C 21.166 547.255,21.177 547.105,20.825 546.446 C 20.278 545.425,20.036 545.362,20.170 546.278 M379.175 546.446 C 378.823 547.105,378.834 547.255,379.226 547.125 C 379.503 547.032,379.775 546.651,379.830 546.278 C 379.964 545.362,379.722 545.425,379.175 546.446 M21.483 549.177 C 21.969 549.575,22.239 550.042,22.083 550.214 C 21.927 550.387,22.027 550.397,22.305 550.237 C 22.984 549.847,22.325 548.693,21.345 548.556 C 20.688 548.465,20.704 548.538,21.483 549.177 M377.577 549.242 C 377.315 549.733,377.353 550.041,377.699 550.240 C 377.975 550.398,378.073 550.387,377.917 550.214 C 377.761 550.042,378.014 549.593,378.478 549.217 C 379.197 548.635,379.221 548.533,378.640 548.533 C 378.264 548.533,377.786 548.852,377.577 549.242 M24.170 552.678 C 24.225 553.051,24.480 553.427,24.737 553.512 C 24.995 553.598,25.085 553.878,24.938 554.134 C 24.792 554.390,24.819 554.467,24.999 554.303 C 25.179 554.140,25.605 554.230,25.946 554.503 C 26.287 554.777,26.057 554.325,25.435 553.500 C 24.159 551.807,24.030 551.723,24.170 552.678 M374.565 553.500 C 373.943 554.325,373.713 554.777,374.054 554.503 C 374.395 554.230,374.821 554.140,375.001 554.303 C 375.181 554.467,375.208 554.390,375.062 554.134 C 374.915 553.878,375.005 553.598,375.263 553.512 C 375.657 553.381,376.159 552.000,375.812 552.000 C 375.748 552.000,375.186 552.675,374.565 553.500 M26.400 555.738 C 26.730 556.012,27.215 556.479,27.478 556.776 C 27.863 557.212,27.914 557.158,27.741 556.495 C 27.623 556.043,27.138 555.576,26.663 555.457 C 25.930 555.273,25.890 555.315,26.400 555.738 M365.800 559.068 C 364.920 559.857,364.560 560.316,365.000 560.088 C 365.741 559.704,367.951 557.579,367.570 557.617 C 367.476 557.626,366.680 558.279,365.800 559.068 M34.720 562.242 C 34.935 562.627,35.491 562.970,35.956 563.004 C 37.094 563.088,37.022 562.935,35.564 562.181 C 34.401 561.580,34.351 561.584,34.720 562.242 M364.300 562.229 C 362.979 562.946,362.932 563.086,364.044 563.004 C 364.509 562.970,365.058 562.640,365.264 562.271 C 365.713 561.470,365.700 561.469,364.300 562.229 M359.400 562.285 C 358.175 562.580,357.798 563.128,358.976 562.903 C 359.546 562.794,360.110 562.546,360.230 562.352 C 360.349 562.159,360.392 562.021,360.324 562.046 C 360.256 562.072,359.840 562.179,359.400 562.285 M43.552 563.712 C 43.745 563.905,44.419 563.998,45.051 563.919 C 46.109 563.787,46.081 563.759,44.700 563.568 C 43.840 563.449,43.350 563.510,43.552 563.712 M355.200 563.600 L 353.800 563.895 355.076 563.947 C 355.778 563.976,356.464 563.820,356.600 563.600 C 356.736 563.380,356.792 563.224,356.724 563.253 C 356.656 563.282,355.970 563.438,355.200 563.600 M47.200 566.400 C 46.812 566.651,100.818 566.788,200.000 566.788 C 299.182 566.788,353.188 566.651,352.800 566.400 C 352.415 566.151,297.582 566.012,200.000 566.012 C 102.418 566.012,47.585 566.151,47.200 566.400 " stroke="none" fill="#848484" fill-rule="evenodd"></path></g></svg>